C:\Users\febre\Documents\GitHub\PredSim-workshop-bcn-2024\S4. Modelling neuromusculoskeletal deficits\Code\Results\BCN_CP1\BCN_CP1_v1.mot
version=1
nRows=8
nColumns=29
inDegrees=yes
endheader
                time	         pelvis_tilt	           pelvis_tx	           pelvis_ty	       hip_flexion_l	       hip_flexion_r	        knee_angle_l	        knee_angle_r	       ankle_angle_l	       ankle_angle_r	    lumbar_extension	hamstrings_r/activation	bifemsh_r/activation	glut_max_r/activation	iliopsoas_r/activation	rect_fem_r/activation	  vasti_r/activation	gastroc_r/activation	 soleus_r/activation	tib_ant_r/activation	hamstrings_l/activation	bifemsh_l/activation	glut_max_l/activation	iliopsoas_l/activation	rect_fem_l/activation	  vasti_l/activation	gastroc_l/activation	 soleus_l/activation	tib_ant_l/activation	
          0.00000000	         -5.71547559	          0.00000000	          0.89149425	        -11.49108843	         21.33817632	        -21.60925392	          2.07536692	          6.26283454	          4.06930846	         -0.31335681	          0.12455801	          0.05001461	          0.14182834	          0.05000234	          0.05329966	          0.06362818	          0.06568102	          0.06341749	          0.24418416	          0.05000375	          0.08994324	          0.05000189	          0.42812360	          0.05000225	          0.05000031	          0.18060960	          0.22139831	          0.05000026	
          0.01078681	         -5.60519731	          0.01810894	          0.88985612	        -10.21066171	         20.59802264	        -25.78853846	          1.18549623	          3.92536124	          3.68753952	          0.09262604	          0.12659430	          0.08777734	          0.20667879	          0.05000073	          0.05000087	          0.05393302	          0.05899266	          0.05472096	          0.25633757	          0.05000204	          0.07623884	          0.05000035	          0.36288439	          0.05000124	          0.05000025	          0.15308755	          0.18766068	          0.31420859	
          0.02157362	         -5.49865323	          0.03584969	          0.88818378	         -8.71481640	         19.74975697	        -30.17051998	          0.44946766	          1.89247694	          3.15826467	          0.45612949	          0.10730352	          0.07444645	          0.21447054	          0.05000055	          0.05000095	          0.05000181	          0.05000425	          0.05000038	          0.33490382	          0.08850196	          0.06463073	          0.05898555	          0.30758682	          0.05000096	          0.05000021	          0.12975946	          0.15906416	          0.26632836	
          0.03236042	         -5.40691544	          0.05274301	          0.88709109	         -7.08839766	         18.88387045	        -34.38829654	         -0.11551758	          1.47044626	          2.57833321	          0.72938427	          0.09240272	          0.06310636	          0.19433335	          0.05000053	          0.05000110	          0.12934981	          0.05654896	          0.05000141	          0.35416506	          0.09320396	          0.09121669	          0.05000058	          0.26071566	          0.05000107	          0.05000016	          0.10998628	          0.13482533	          0.31141710	
          0.04314723	         -5.33243297	          0.06868324	          0.88712991	         -5.34929758	         18.00373759	        -38.28167741	         -0.54398830	          1.61880382	          2.30116124	          0.90392954	          0.07832262	          0.05349805	          0.16472066	          0.05000130	          0.05000321	          0.14208183	          0.06921117	          0.05241848	          0.34987494	          0.09063526	          0.12676957	          0.05000043	          0.22098775	          0.05000166	          0.05000014	          0.09322670	          0.11428015	          0.31362330	
          0.05393404	         -5.27277445	          0.08379119	          0.88831238	         -3.54373857	         17.10847307	        -41.75959938	         -0.84914581	          1.96411730	          2.30471582	          0.99404961	          0.07192608	          0.05002392	          0.13962191	          0.05000121	          0.05000280	          0.13855750	          0.08084531	          0.05939629	          0.33254657	          0.11682694	          0.15849512	          0.05000036	          0.18731424	          0.10288190	          0.05000014	          0.08572331	          0.09686573	          0.29379298	
          0.06472085	         -5.22340897	          0.09828288	          0.89033593	         -1.72858505	         16.19355998	        -44.76859871	         -1.03904651	          2.43142959	          2.43757635	          1.02256400	          0.07146467	          0.05003356	          0.12435521	          0.05000112	          0.05000261	          0.12215371	          0.09330137	          0.06403855	          0.31545745	          0.13443751	          0.19500370	          0.05000038	          0.16020162	          0.16355207	          0.05000016	          0.08353070	          0.08210501	          0.27357650	
          0.07550766	         -5.18005469	          0.11235008	          0.89284085	          0.05913133	         15.25759892	        -47.30046635	         -1.12917929	          2.95890831	          2.57978074	          1.00867490	          0.07378977	          0.05003533	          0.12066180	          0.05000107	          0.05000246	          0.10586836	          0.10546505	          0.06794913	          0.30471706	          0.11397902	          0.23590477	          0.05000039	          0.14458761	          0.20443889	          0.05000018	          0.07979837	          0.06959362	          0.25269766	
